<?xml version="1.0" encoding="UTF-8" standalone="no"?>
<!-- Created with Inkscape (http://www.inkscape.org/) -->

<svg
   width="126.47083mm"
   height="126.47083mm"
   viewBox="0 0 126.47083 126.47083"
   version="1.1"
   id="svg5"
   xml:space="preserve"
   xmlns:inkscape="http://www.inkscape.org/namespaces/inkscape"
   xmlns:sodipodi="http://sodipodi.sourceforge.net/DTD/sodipodi-0.dtd"
   xmlns="http://www.w3.org/2000/svg"
   xmlns:svg="http://www.w3.org/2000/svg"><sodipodi:namedview
     id="namedview7"
     pagecolor="#ffffff"
     bordercolor="#666666"
     borderopacity="1.0"
     inkscape:showpageshadow="2"
     inkscape:pageopacity="0"
     inkscape:pagecheckerboard="0"
     inkscape:deskcolor="#d1d1d1"
     inkscape:document-units="mm"
     showgrid="false" /><defs
     id="defs2" /><g
     inkscape:label="Layer 1"
     inkscape:groupmode="layer"
     id="layer1"
     transform="translate(-41.764577,-156.43066)"><path
       style="fill:#be0029;fill-opacity:1;stroke:#ffffff;stroke-width:1.00086;stroke-linecap:round;stroke-linejoin:round;stroke-dasharray:none;stroke-opacity:0;paint-order:normal"
       d="m 99.701981,282.24387 c -6.155145,-0.53585 -16.359462,-2.98658 -16.756739,-4.02438 -0.07561,-0.19753 -0.0073,-2.14279 0.151758,-4.32279 0.293599,-4.02342 1.576477,-27.26348 1.577229,-28.57239 4.12e-4,-0.71423 4.12e-4,-0.71423 20.339141,-0.71423 20.33874,0 20.33874,0 20.33994,0.97396 7.7e-4,0.53568 0.11437,2.84397 0.2527,5.12952 0.13833,2.28556 0.3754,6.78526 0.52685,9.99933 0.15145,3.21406 0.32557,6.54501 0.38695,7.40209 0.59077,8.24863 0.64981,10.09629 0.32917,10.30019 -3.97004,2.52455 -18.53377,4.57855 -27.146999,3.8287 z M 75.47687,275.03899 C 52.463473,263.00803 39.210311,236.8606 42.867935,210.70414 c 0.153277,-1.09612 5.58255,-3.5422 37.529965,-16.90858 6.356129,-2.65933 6.867662,-2.98473 6.867662,-4.3687 0,-2.90658 -1.981634,-2.78238 -9.336672,0.58516 -1.198708,0.54884 -32.011697,13.67764 -33.11059,14.10777 -1.796958,0.70336 3.39244,-12.20566 7.325809,-18.2235 1.686837,-2.58076 1.686837,-2.58076 17.840798,-2.58076 18.191235,0 17.292763,0.10894 17.272416,-2.09452 -0.02171,-2.35184 0.09875,-2.33581 -16.106309,-2.14251 -16.262653,0.19398 -15.084521,0.71122 -9.881173,-4.33825 3.695146,-3.58588 6.880683,-6.08481 7.529863,-5.90691 0.252424,0.0692 3.996715,1.55435 8.320647,3.30036 5.660806,2.28586 8.038106,3.1302 8.491857,3.01603 1.737706,-0.43719 2.242268,-2.50615 0.912615,-3.74217 -0.473626,-0.44028 -3.035051,-1.57667 -7.10313,-3.15134 -3.499314,-1.35452 -6.29946,-2.56485 -6.222548,-2.68959 0.262395,-0.4256 7.804653,-3.99046 10.482948,-4.95479 13.628773,-4.90708 28.774687,-4.90708 42.403467,0 2.67829,0.96433 10.22054,4.52919 10.48294,4.95479 0.0769,0.12474 -2.72323,1.33507 -6.22254,2.68959 -4.06808,1.57467 -6.62951,2.71106 -7.10313,3.15134 -1.32966,1.23602 -0.8251,3.30498 0.91261,3.74217 0.45375,0.11417 2.83105,-0.73017 8.49186,-3.01603 4.32393,-1.74601 8.06822,-3.23117 8.32065,-3.30036 0.64918,-0.1779 3.83471,2.32103 7.52986,5.90691 5.20335,5.04947 6.38148,4.53223 -9.88117,4.33825 -16.24105,-0.19373 -16.08508,-0.21483 -16.10631,2.17891 -0.0192,2.16821 -0.94501,2.05812 17.30762,2.05812 16.11657,0 16.11657,0 17.70066,2.40243 3.80546,5.7714 9.34774,19.31313 7.62802,18.63799 -2.51849,-0.98873 -31.98627,-13.6253 -33.18768,-14.23175 -6.73272,-3.39859 -9.45687,-3.59946 -9.45687,-0.69734 0,1.29801 0.58567,1.74559 4.41623,3.37503 39.01167,16.59465 39.74722,16.92311 39.9374,17.83376 3.50068,16.76222 -3.75852,39.01436 -17.2557,52.89508 -5.11851,5.26394 -17.00448,13.62007 -17.98107,12.64112 -0.15834,-0.15874 -0.29087,-2.15167 -0.82933,-12.47215 -1.38048,-26.45884 -0.60113,-23.50491 -6.20128,-23.50491 -3.5849,0 -3.5849,0 -3.74967,-2.53229 -0.0907,-1.39276 -0.624,-11.88231 -1.18527,-23.31012 -1.34021,-27.28733 -1.19692,-25.41174 -2.00311,-26.2199 -0.39979,-0.40076 -0.95217,-0.66139 -1.40174,-0.66139 -0.74195,0 -0.74195,0 -0.74195,-2.07778 0,-2.07778 0,-2.07778 0.78907,-2.07778 2.58381,0 2.67839,-3.82101 0.10654,-4.30468 -0.89561,-0.16841 -0.89561,-0.16841 -0.89561,-2.18128 0,-1.99975 0.004,-2.01206 0.63912,-1.89038 1.68202,0.32231 2.8535,-2.43092 1.57824,-3.70927 -0.88454,-0.88668 -11.93305,-6.3547 -12.84013,-6.3547 -0.90708,0 -11.955586,5.46802 -12.840123,6.3547 -1.256749,1.2598 -0.375237,3.55005 1.391218,3.61452 1.354402,0.0494 1.290014,3.91075 -0.06947,4.16641 -2.571845,0.48367 -2.477275,4.30468 0.106552,4.30468 0.789051,0 0.789051,0 0.789051,2.07778 0,2.07778 0,2.07778 -0.712508,2.08604 -0.722365,0.008 -1.226097,0.30229 -1.815201,1.05913 -0.240792,0.30935 -2.913229,47.59087 -2.913229,51.54172 0,0.063 -1.567484,0.11459 -3.483297,0.11459 -5.495175,0 -4.769617,-3.34154 -6.372544,29.34866 -0.178613,3.64261 -0.395093,6.70451 -0.481069,6.8042 -0.08598,0.0997 -1.438828,-0.4892 -3.006335,-1.30866 z m 17.843266,-36.07788 c 0.07927,-0.67853 0.209586,-2.98681 0.289657,-5.12952 0.288848,-7.7296 -1.098491,-6.88266 11.274027,-6.88266 12.37253,0 10.98519,-0.84694 11.27403,6.88266 0.0801,2.14271 0.21042,4.45099 0.28966,5.12952 0.14408,1.23368 0.14408,1.23368 -11.56369,1.23368 -11.707763,0 -11.707763,0 -11.563684,-1.23368 z m 1.032615,-19.99865 c 0.501633,-10.50489 -0.717527,-9.41495 10.531069,-9.41495 11.2486,0 10.02944,-1.08994 10.53108,9.41495 0.17053,3.57119 0.17053,3.57119 -10.53108,3.57119 -10.701599,0 -10.701599,0 -10.531069,-3.57119 z m 0.776535,-15.84308 c 0.08687,-1.10706 0.224991,-3.82441 0.307032,-6.03855 0.08207,-2.21414 0.203158,-4.28868 0.269155,-4.61008 0.189813,-0.92431 18.166897,-0.92431 18.356707,0 0.066,0.3214 0.18712,2.39594 0.26915,4.61008 0.0821,2.21414 0.2202,4.93149 0.30703,6.03855 0.15788,2.01285 0.15788,2.01285 -9.75454,2.01285 -9.912408,0 -9.912408,0 -9.754534,-2.01285 z m 3.536331,-17.72607 c 0,-2.07778 0,-2.07778 6.218203,-2.07778 6.21821,0 6.21821,0 6.21821,2.07778 0,2.07778 0,2.07778 -6.21821,2.07778 -6.218203,0 -6.218203,0 -6.218203,-2.07778 z m 0,-9.60774 c 0,-3.11467 0,-3.11467 3.109103,-4.677 3.1091,-1.56235 3.1091,-1.56235 6.21821,0 3.1091,1.56233 3.1091,1.56233 3.1091,4.677 0,3.11468 0,3.11468 -6.21821,3.11468 -6.218203,0 -6.218203,0 -6.218203,-3.11468 z"
       id="path308"
       inkscape:export-filename="lhicon1.svg"
       inkscape:export-xdpi="10.041842"
       inkscape:export-ydpi="10.041842" /></g></svg>
