<?xml version="1.0" encoding="UTF-8" standalone="no"?>
<svg
   height="42.976234"
   width="42.976234"
   version="1.1"
   id="svg4"
   xmlns="http://www.w3.org/2000/svg"
   xmlns:svg="http://www.w3.org/2000/svg">
  <defs
     id="defs8" />
  <circle
     style="opacity:0.99;fill:#ffffff;fill-opacity:1;stroke-width:3.91049;stroke-linecap:round;stroke-linejoin:round"
     id="path3794"
     cx="21.488117"
     cy="21.488117"
     r="21.488117" />
  <path
     id="path2"
     d="m 23.488117,3.4881172 c -3.433327,0 -6.442062,1.1424525 -9.025391,3.4257812 -2.583327,2.2833288 -4.27422,5.1408916 -5.0742178,8.5742186 L 5.937336,21.687336 c -0.3666661,0.666665 -0.3821609,1.317839 -0.048828,1.951172 0.3333327,0.633331 0.8333347,0.949218 1.5,0.949218 h 2.0000004 v 5.550782 c 0,0.833331 0.291667,1.541667 0.8749996,2.125 0.583331,0.583331 1.291667,0.875 2.125,0.875 h 3.548828 v 6.349609 h 12.800781 v -9.300781 c 2.533327,-1.233331 4.625393,-2.957167 6.275391,-5.173828 1.649996,-2.216663 2.474609,-4.725397 2.474609,-7.525391 0,-3.899992 -1.357556,-7.20912 -4.074219,-9.9257808 -2.716661,-2.7166617 -6.025789,-4.074219 -9.925781,-4.074219 z m -6.65625,6.7304688 c 0.734837,0 1.304649,0.221206 1.712891,0.662109 0.40824,0.440901 0.931501,0.66211 1.568359,0.66211 0.636855,0 1.167225,-0.221209 1.591797,-0.66211 0.42457,-0.440903 1.005399,-0.662109 1.740234,-0.662109 0.734836,0 1.310154,0.221206 1.726563,0.662109 0.416401,0.440901 0.943219,0.66211 1.580078,0.66211 0.636857,0 1.163672,-0.221209 1.580078,-0.66211 0.416406,-0.440903 0.991727,-0.662109 1.726562,-0.662109 0.734837,0 1.293988,0.18887 1.677735,0.564453 0.383744,0.375583 0.885331,0.5625 1.505859,0.5625 v 1.470703 c -0.767496,0 -1.333757,-0.18887 -1.701172,-0.564453 -0.367419,-0.375582 -0.861894,-0.5625 -1.482422,-0.5625 -0.620527,0 -1.14379,0.219257 -1.568359,0.660156 -0.424572,0.440904 -1.003446,0.66211 -1.738281,0.66211 -0.734837,-10e-7 -1.315666,-0.221206 -1.740234,-0.66211 -0.424574,-0.440899 -0.945881,-0.660156 -1.566407,-0.660156 -0.620527,0 -1.147344,0.219257 -1.580078,0.660156 -0.432737,0.440904 -1.01712,0.66211 -1.751953,0.66211 -0.734837,-10e-7 -1.310158,-0.221206 -1.726562,-0.66211 -0.416409,-0.440899 -0.934161,-0.660156 -1.554688,-0.660156 -0.620527,0 -1.115002,0.186918 -1.482422,0.5625 -0.367413,0.375583 -0.935628,0.564453 -1.703125,0.564453 v -1.470703 c 0.62053,0 1.122115,-0.186917 1.505859,-0.5625 0.383748,-0.375583 0.944852,-0.564453 1.679688,-0.564453 z m 0,3.919922 c 0.734837,0 1.304649,0.221207 1.712891,0.662109 0.40824,0.4409 0.931501,0.660156 1.568359,0.660156 0.636855,0 1.167225,-0.219256 1.591797,-0.660156 0.42457,-0.440902 1.005399,-0.662109 1.740234,-0.662109 0.734836,0 1.310154,0.221207 1.726563,0.662109 0.416401,0.4409 0.943219,0.660156 1.580078,0.660156 0.636857,0 1.163672,-0.219256 1.580078,-0.660156 0.416406,-0.440902 0.991727,-0.662109 1.726562,-0.662109 0.734837,0 1.293988,0.186916 1.677735,0.5625 0.383744,0.375579 0.885331,0.564453 1.505859,0.564453 v 1.46875 c -0.767496,0 -1.333757,-0.186918 -1.701172,-0.5625 -0.367419,-0.375581 -0.861894,-0.564453 -1.482422,-0.564453 -0.620527,0 -1.14379,0.221209 -1.568359,0.662109 -0.424572,0.440902 -1.003446,0.662109 -1.738281,0.662109 -0.734837,0 -1.315666,-0.221207 -1.740234,-0.662109 -0.424574,-0.4409 -0.945881,-0.662109 -1.566407,-0.662109 -0.620527,0 -1.147344,0.221209 -1.580078,0.662109 -0.432737,0.440902 -1.01712,0.662109 -1.751953,0.662109 -0.734837,0 -1.310158,-0.221207 -1.726562,-0.662109 -0.416409,-0.4409 -0.934161,-0.662109 -1.554688,-0.662109 -0.620527,0 -1.115002,0.188872 -1.482422,0.564453 -0.367413,0.375582 -0.935628,0.5625 -1.703125,0.5625 v -1.46875 c 0.62053,0 1.122115,-0.188874 1.505859,-0.564453 0.383748,-0.375584 0.944852,-0.5625 1.679688,-0.5625 z m 0,3.919921 c 0.734837,0 1.304649,0.219253 1.712891,0.660157 0.40824,0.440899 0.931501,0.662109 1.568359,0.662109 0.636855,0 1.167225,-0.22121 1.591797,-0.662109 0.42457,-0.440904 1.005399,-0.660156 1.740234,-0.660157 0.734836,0 1.310154,0.219253 1.726563,0.660157 0.416401,0.440899 0.943219,0.662109 1.580078,0.662109 0.636857,0 1.163672,-0.22121 1.580078,-0.662109 0.416406,-0.440904 0.991727,-0.660156 1.726562,-0.660157 0.734837,0 1.293988,0.186917 1.677735,0.5625 0.383744,0.375583 0.885331,0.5625 1.505859,0.5625 v 1.470704 c -0.767496,0 -1.333757,-0.188872 -1.701172,-0.564454 -0.367419,-0.375582 -0.861894,-0.562499 -1.482422,-0.5625 -0.620527,0 -1.14379,0.22121 -1.568359,0.66211 -0.424572,0.440903 -1.003446,0.660156 -1.738281,0.660156 -0.734837,0 -1.315666,-0.219253 -1.740234,-0.660156 -0.424574,-0.4409 -0.945881,-0.66211 -1.566407,-0.66211 -0.620527,0 -1.147344,0.22121 -1.580078,0.66211 -0.432737,0.440903 -1.01712,0.660156 -1.751953,0.660156 -0.734837,0 -1.310158,-0.219253 -1.726562,-0.660156 -0.416409,-0.4409 -0.934161,-0.66211 -1.554688,-0.66211 -0.620527,0 -1.115002,0.186918 -1.482422,0.5625 -0.367413,0.375582 -0.935628,0.564454 -1.703125,0.564454 v -1.470704 c 0.62053,0 1.122115,-0.186917 1.505859,-0.5625 0.383748,-0.375583 0.944852,-0.562499 1.679688,-0.5625 z" />
</svg>
